<?xml version="1.0" encoding="UTF-8"?>
<svg width="25px" height="25px" viewBox="0 0 25 25" version="1.1" xmlns="http://www.w3.org/2000/svg" xmlns:xlink="http://www.w3.org/1999/xlink">
    <!-- Generator: Sketch 41.2 (35397) - http://www.bohemiancoding.com/sketch -->
    <title>Shape</title>
    <desc>Created with Sketch.</desc>
    <defs></defs>
    <g id="Contact" stroke="none" stroke-width="1" fill="none" fill-rule="evenodd">
        <g id="Desktop-HD" transform="translate(-1277.000000, -395.000000)" fill="#3DB39E">
            <g id="Form" transform="translate(726.000000, 189.000000)">
                <g id="Button" transform="translate(456.000000, 216.000000)">
                    <g id="cancel" transform="translate(95.000000, 0.000000)">
                        <g id="Layer_1">
                            <g id="checked" transform="translate(10.000000, 0.000000)">
                                <g id="Layer_1">
                                    <path d="M2.50039329,-10 C-4.40446433,-10 -10,-4.40315465 -10,2.5 C-10,9.40394121 -4.40376514,15 2.50039329,15 C9.40376514,15 15,9.40394121 15,2.5 C15,-4.40236808 9.40376514,-10 2.50039329,-10 Z M2.50039329,12.6562118 C-3.10912619,12.6562118 -7.65613802,8.10934299 -7.65613802,2.5 C-7.65613802,-3.10934299 -3.1083396,-7.65621176 2.50039329,-7.65621176 C8.10912619,-7.65621176 12.656138,-3.10934299 12.656138,2.5 C12.656138,8.10934299 8.10921359,12.6562118 2.50039329,12.6562118 Z M7.41308186,-2.81717788 C6.88178433,-3.13433827 6.20287018,-2.9460871 5.89741125,-2.39531697 L1.70585048,5.13359366 L-0.628572427,2.29217211 C-1.0512332,1.8054633 -1.61294552,1.5531508 -2.14345645,1.8703112 C-2.67475397,2.18825816 -2.89429985,2.95314871 -2.55047283,3.44379033 L0.698054502,7.39767666 C0.941023266,7.71326393 1.21833977,7.90238906 1.50824171,7.95631244 L1.51060148,7.96103183 L1.54031708,7.96260496 C1.60595361,7.97274291 2.58726774,8.15400239 3.00992851,7.39776406 L7.82105962,-1.24361135 C8.12634376,-1.79534284 7.94437938,-2.49923091 7.41308186,-2.81717788 Z" id="Shape"></path>
                                </g>
                            </g>
                        </g>
                    </g>
                </g>
            </g>
        </g>
    </g>
</svg>