<?xml version="1.0" encoding="UTF-8"?>
<svg width="25px" height="25px" viewBox="0 0 25 25" version="1.1" xmlns="http://www.w3.org/2000/svg" xmlns:xlink="http://www.w3.org/1999/xlink">
    <!-- Generator: Sketch 41.2 (35397) - http://www.bohemiancoding.com/sketch -->
    <title>Shape</title>
    <desc>Created with Sketch.</desc>
    <defs></defs>
    <g id="Contact" stroke="none" stroke-width="1" fill="none" fill-rule="evenodd">
        <g id="Desktop-HD" transform="translate(-1277.000000, -507.000000)" fill="#E2574C">
            <g id="Form" transform="translate(726.000000, 189.000000)">
                <g id="Button" transform="translate(456.000000, 206.000000)">
                    <g id="cancel" transform="translate(95.000000, 0.000000)">
                        <g id="Layer_1">
                            <path d="M14.6648084,124.449477 L16.866899,122.247387 C17.1713415,121.94216 17.1713415,121.45 16.866899,121.146341 L15.7658537,120.044512 C15.4614111,119.740854 14.9692509,119.74007 14.6648084,120.044512 L12.4619338,122.247387 L10.2606272,120.04608 C9.9554007,119.740854 9.46245645,119.740854 9.15801394,120.044512 L8.05696864,121.146341 C7.75252613,121.45 7.7533101,121.943728 8.05853659,122.248171 L10.2598432,124.449477 L8.06236934,126.646864 C7.75792683,126.951307 7.75792683,127.443467 8.06236934,127.747909 L9.16341463,128.849739 C9.46785714,129.153397 9.96001742,129.154181 10.2644599,128.849739 L12.4618467,126.652352 L14.6748258,128.866115 C14.9800523,129.171341 15.4729965,129.171341 15.777439,128.866899 L16.8784843,127.765854 C17.1829268,127.461411 17.1821429,126.968467 16.8777003,126.66324 L14.6648084,124.449477 Z M12.4587979,112 C5.57761324,112 0,117.5777 0,124.458014 C0,131.339199 5.57761324,136.916812 12.4587979,136.916812 C19.3399826,136.916812 24.9175958,131.339199 24.9175958,124.458014 C24.9175958,117.578484 19.3398955,112 12.4587979,112 Z M12.4587979,134.580836 C6.86794425,134.580836 2.33606272,130.048955 2.33606272,124.458101 C2.33606272,118.867247 6.86794425,114.335279 12.4587979,114.335279 C18.0496516,114.335279 22.5815331,118.86716 22.5815331,124.458014 C22.5815331,130.048868 18.0496516,134.580836 12.4587979,134.580836 Z" id="Shape"></path>
                        </g>
                    </g>
                </g>
            </g>
        </g>
    </g>
</svg>