<svg xmlns="http://www.w3.org/2000/svg" width="40" height="25">
  <g fill="#FFF">
    <path d="M26.667 5.303H36c.4 0 .667-.262.667-.654V2.03c0-.392-.267-.653-.667-.653h-9.333c-.4 0-.667.26-.667.654v2.62c0 .39.267.66.667.66zm.666-2.617h8v1.308h-8V2.686zM17 11.193c1.333-.85 2.933-2.618 2.333-5.89C18.6 1.05 14.2.003 11.933.068H.667C.267.068 0 .33 0 .722v22.25c0 .392.267.654.667.654H12.8c2.8 0 7.333-1.112 7.867-5.628.466-4.057-1.934-5.955-3.667-6.805zm2.333 6.61c-.6 4.842-6.733 4.514-7.066 4.514H1.333V1.377h10.6c.067 0 5.334 0 6.067 4.122.733 4.05-2.733 5.03-2.867 5.1-.266.06-.466.32-.466.65s.2.59.533.65c.2 0 4.733 1.05 4.133 5.89zM40 16.428c0-5.76-3.867-9.816-9.333-9.816-5.334 0-9.334 4.515-9.334 8.507 0 5.62 4 9.81 9.334 9.81 6.066 0 8.466-4.85 8.666-5.76.067-.2 0-.39-.133-.52-.133-.2-.333-.26-.533-.26h-4c-.267 0-.534.19-.6.46-.267.52-.867 1.5-2.734 1.5-1.933 0-3.133-1.18-3.333-3.27h11.333c.4 0 .667-.26.667-.66zm-12.733-.655c-.4 0-.667.262-.667.655 0 3.206 1.8 5.235 4.667 5.235 2.333 0 3.4-1.178 3.8-1.963H37.6c-.8 1.374-2.867 3.926-6.933 3.926-4.667 0-8-3.6-8-8.507 0-3.34 3.466-7.2 8-7.2 5.2 0 7.733 3.92 7.933 7.85H27.267z"/>
    <path d="M5.333 9.884H12c1.867 0 3.333-1.44 3.333-3.272 0-1.832-1.466-3.272-3.333-3.272H5.333c-.4 0-.666.262-.666.654V9.23c0 .392.266.654.666.654zM6 4.65h6c1.133 0 2 .85 2 1.962s-.867 1.963-2 1.963H6V4.65zm5.333 7.85h-6c-.4 0-.666.263-.666.656V19.7c0 .392.266.654.666.654h6c2.2 0 4-1.767 4-3.926 0-2.16-1.8-3.927-4-3.927zm0 6.545H6V13.81h5.333C12.8 13.81 14 14.988 14 16.428s-1.2 2.617-2.667 2.617zM31 9.23c-2.733 0-4.333 2.028-4.333 3.926v.654c0 .393.266.655.666.655h7.334c.4 0 .666-.262.666-.655v-.654c0-1.898-1.533-3.927-4.333-3.927zm-3 3.926c0-1.244 1.067-2.618 3-2.618s3 1.374 3 2.618h-6z"/>
  </g>
</svg>
