<svg xmlns="http://www.w3.org/2000/svg" width="26" height="25"><path fill="#FFF" d="M3.503.013c-.95 0-1.816.34-2.465.974C.346 1.664 0 2.51 0 3.4c0 .93.39 1.777 1.038 2.412.65.635 1.557 1.016 2.422.974h.086c.865 0 1.687-.34 2.336-.974.65-.635 1.038-1.48 1.038-2.413.043-.89-.346-1.74-.995-2.37A3.308 3.308 0 0 0 3.503.01zM5.276 5.22c-.475.465-1.124.76-1.816.72-.65 0-1.34-.255-1.817-.72-.52-.466-.778-1.143-.778-1.82 0-.678.26-1.313.778-1.82.476-.466 1.125-.72 1.86-.72.65 0 1.298.254 1.773.72.52.507.78 1.142.78 1.82 0 .677-.26 1.354-.78 1.82zM5.19 7.632H1.687c-.692 0-1.255.55-1.255 1.27v14.815c0 .677.606 1.27 1.298 1.27h3.46c.692 0 1.297-.593 1.297-1.228V8.9c0-.677-.605-1.27-1.297-1.27zm.432 16.127c0 .21-.216.38-.432.38H1.73c-.216 0-.433-.21-.433-.43V8.902c0-.212.173-.423.39-.423H5.19c.216 0 .432.21.432.42v14.86zM19.894 7.21h-.908c-1.686 0-3.287.72-4.325 1.86v-.59c0-.424-.43-.848-.86-.848H9.47c-.39 0-.865.34-.865.804v15.79c0 .464.475.76.865.76h4.757c.385 0 .86-.296.86-.76V15.08c0-1.397 1.04-2.497 2.38-2.497.69 0 1.34.254 1.816.72.43.38.605.973.605 1.735v9.1c0 .423.433.847.866.847h4.324c.434 0 .866-.424.866-.847V13.22c0-3.387-2.64-6.01-6.056-6.01zm5.19 16.888l-.043.042h-4.23l-.043-9.1c0-1.016-.26-1.778-.82-2.328a3.445 3.445 0 0 0-2.423-.974c-1.817.042-3.244 1.482-3.244 3.344v9.058H9.52V8.48h4.28l.044.04v2.668l1.168-1.143.044-.042c.87-1.186 2.38-1.947 3.98-1.947h.91c2.9 0 5.148 2.285 5.148 5.164v10.878z"/></svg>