<svg version="1" xmlns="http://www.w3.org/2000/svg" width="1000" height="1000" viewBox="0 0 750.000000 750.000000"><path d="M631 3.6c-5.8 1.9-11.3 3.7-12.2 3.9-.9.2-10.2 3.1-20.7 6.5-10.4 3.4-19.6 6.3-20.3 6.4-.7.2-2 .6-2.8.9-.8.3-3.7 1.3-6.5 2.1-2.7.8-10.2 3.2-16.5 5.3-6.3 2-11.9 3.8-12.5 3.9-1.2.3-8.9 2.7-52 16.4-17.6 5.6-34.2 10.9-37 11.8-2.7.9-5.2 1.6-5.5 1.7-.3 0-2.1.6-4 1.2-4.5 1.5-21.1 6.7-42 13.3-9.1 2.8-17.2 5.4-18 5.7-.8.3-2.1.8-2.7 1-.7.1-1.9.5-2.5.6-.7.2-2 .7-2.8 1-1.3.5-59 18.7-80.5 25.4-4.4 1.3-8.6 2.6-9.3 2.8-.7.3-1.3.4-1.5.4-.1 0-1.5.5-3.2 1.1-1.6.7-6.4 2.2-10.5 3.5-4.1 1.3-17.6 5.5-30 9.5-12.4 3.9-23.2 7.3-24 7.5-.8.2-4.9 1.5-9 2.8-4.1 1.4-13.6 4.4-21 6.8-7.4 2.3-18 5.6-23.5 7.4-5.5 1.7-19.8 6.2-31.7 10l-21.8 6.8v290.4c0 159.7.2 290.3.5 290.3s4.6-1.4 9.7-3c12.5-4.1 18.1-5.9 39.3-12.5 9.9-3.1 23.4-7.4 30-9.5 14-4.5 43-13.6 66.5-21 9.1-2.8 21.9-6.9 28.5-9 12.1-3.9 33-10.5 70.5-22.4 11.3-3.5 21.9-7 23.5-7.6 1.7-.6 3-1 3-.9 0 .1 6.1-1.7 13.5-4.1 7.4-2.4 13.7-4.3 14-4.3.3 0 1.6-.4 3-.9s15.3-5 31-9.9c15.7-5 37.7-12 48.9-15.6 11.3-3.6 21-6.6 21.5-6.8.6-.1 1.8-.5 2.6-.8 1.4-.6 25-8 26-8.2.3-.1 6.6-2 14-4.4 7.4-2.3 20-6.3 28-8.8 8-2.5 15.2-4.8 16-5.1.8-.3 2-.6 2.5-.8.6-.2 7.5-2.4 15.5-4.9 8-2.6 17.5-5.6 21.3-6.7l6.7-2.1V290.3c0-159.6-.3-290.3-.7-290.2-.5.1-5.5 1.6-11.3 3.5zm6 288.8v283.4l-2.7 1c-2.8 1.1-35 11.3-81.8 25.9-13.2 4.1-24.9 7.8-26 8.3-1.7.8-46.3 14.8-49 15.5-.5.1-1.7.4-2.5.8-.8.3-5.1 1.6-9.5 3s-16.1 5.1-26 8.3c-9.9 3.2-18.7 5.9-19.5 6.1-1.9.5-3.2.9-5 1.6-.8.3-3.1 1-5 1.6-1.9.5-15.6 4.8-30.5 9.6-14.8 4.8-27.4 8.8-28 8.9-1.5.3-30.6 9.6-33.5 10.6-2.6.9-32.1 10.3-33 10.5-.3 0-5.2 1.6-11 3.5-5.8 1.8-10.9 3.4-11.5 3.6-1.1.2-35.2 11-48 15.2-4.4 1.4-8.2 2.6-8.5 2.7-1 .2-12.6 3.8-19.5 6.1-3.8 1.2-13.7 4.4-22 6.9-8.2 2.6-16.8 5.3-19 6-3.5 1.2-12.5 4.1-28.3 9l-4.2 1.3.2-284.1c.2-188.6.6-284.2 1.3-284.3.6 0 1.7-.3 2.5-.7.8-.3 7.6-2.4 15-4.7 7.4-2.3 14.6-4.5 16-5 1.4-.6 7.5-2.5 13.5-4.4 6.1-1.9 26.1-8.2 44.5-14.1s34.2-10.8 35-11c.8-.2 8.7-2.7 17.5-5.5s27.5-8.7 41.5-13.1 26.2-8.3 27-8.6c.8-.3 2-.7 2.5-.9.8-.2 21.2-6.6 114-36 6.1-2 13.7-4.4 17-5.4 3.3-1 12.5-3.9 20.5-6.5s17.2-5.5 20.5-6.4c3.3-1 29-9.1 57-18.1 28.1-8.9 53.7-17 57-18 3.3-1 8.5-2.7 11.5-3.8 3-1 6.5-2 7.8-2.1L637 9v283.4z"/><path d="M574.5 102.5c-8.8 3-41.5 13.5-43.5 14-.8.2-5.9 1.8-11.2 3.5-5.4 1.7-14 4.4-19 6-8.8 2.7-19 6-45.8 14.5-6.3 2-14.9 4.7-19 6-4.1 1.3-15.4 4.8-25 7.9-9.6 3.1-18.2 5.9-19 6.1-.8.2-11.6 3.6-24 7.5-12.4 4-24.5 7.8-27 8.5-7.4 2.2-71.2 22.5-71.9 23-.4.2-1.8.6-3.2.9-5.1 1.1-98.5 30.9-99.6 31.9-1 .7-1.3 17.1-1.3 75.7 0 68.3.1 74.9 1.7 76.1.9.8 1.8 1.3 2 1.1.3-.3 15.3 4.3 41.8 12.8 8.3 2.7 22.4 7.2 31.5 10 9.1 2.8 17.6 5.5 19 6 1.4.5 9.9 3.2 19 6 23.3 7.3 38.1 12 41 13 1.4.5 8.6 2.8 16 5.1s13.9 4.4 14.4 4.7c1 .6-1.1 1.3-38.9 13.2-34 10.6-61.6 19.4-70 22.2-3.3 1.1-6.7 2.1-7.5 2.3-3.2.8-68.3 21.6-69.1 22.1-.5.3-.9 33.8-.9 74.5 0 59.8.3 73.9 1.3 73.9.7 0 4-.9 7.3-1.9 3.2-1.1 14-4.5 23.9-7.6 9.9-3.1 19.1-6 20.5-6.5 3.6-1.2 35.3-11.3 36.5-11.6.6-.1 13.2-4.1 28-8.8 14.9-4.8 27.7-8.8 28.5-9.1.8-.2 3.5-1 6-1.8s12.6-4.1 22.5-7.2c42.4-13.3 56.2-17.7 60-19 2.2-.7 11.4-3.7 20.5-6.5s23.5-7.4 32-10.2c8.5-2.7 16.2-5.1 17.1-5.3.9-.2 11-3.4 22.5-7.1 11.5-3.7 21.4-6.9 21.9-7 1.2-.2 38.6-12 42.5-13.4 1.4-.5 8.5-2.7 15.8-5l13.2-4.1V367.4l-15-4.8c-8.2-2.6-15.2-4.7-15.5-4.7-.3.1-2.2-.6-4.2-1.3-2.1-.8-9.9-3.3-17.3-5.6s-14.2-4.4-15-4.7c-.8-.3-1.9-.7-2.5-.9-.5-.1-11.1-3.5-23.5-7.4-29.4-9.4-32.3-10.3-33.5-10.6-.5-.1-5.9-1.8-12-3.7-6-2-19.1-6.2-29-9.3-9.9-3.1-18.3-6-18.8-6.3-.4-.4 2.8-1.7 7-3 7.9-2.3 26.1-8.1 34.3-10.8 2.5-.8 5-1.6 5.5-1.7 1.2-.3 26.3-8.2 32.5-10.3 2.5-.8 5-1.6 5.5-1.7 1.2-.3 23.4-7.3 41.5-13.1 7.4-2.4 20.9-6.7 30-9.5 9.1-2.9 19.4-6.2 23-7.4l6.5-2.3.3-74.1c.2-70.2.1-74.2-1.5-74.1-1 0-4.9 1.1-8.8 2.4zm4.3 73.4v68l-17.2 5.5c-9.4 3-25.2 8-35.1 11.1-9.9 3.1-23.4 7.4-30 9.5-6.6 2.1-20.8 6.6-31.5 10-10.7 3.4-24.9 7.9-31.5 10-6.6 2.1-19.4 6.2-28.5 9-9.1 2.8-21.9 6.9-28.5 9-6.6 2.1-20.1 6.3-30 9.5-9.9 3.1-21.6 6.9-26 8.3-4.4 1.4-8.2 2.7-8.5 2.7-.3.1-2.5.8-5 1.5s-4.7 1.4-5 1.5c-.7.1-26.2 8.2-33 10.5-3 .9-8.4 2.7-12 3.8-27.3 8.6-47.8 15.1-61 19.4-8.5 2.7-16.2 5.1-17 5.3-.8.2-2.7.8-4.1 1.3-2.2.9-2.8.8-3.1-.6-.2-.9-.4-31.6-.4-68.1l.1-66.5 9-2.8c25.1-8 30.6-9.8 37-11.7 3.9-1.2 12.4-3.9 19-6.1 6.6-2.1 19.2-6.1 28-8.8 8.8-2.8 25.5-8.1 37-11.8 19.2-6.1 27.2-8.6 28.5-8.9 1.3-.3 27.7-8.7 29-9.2.8-.3 2-.7 2.5-.9 1-.2 37.7-11.8 49-15.4 3.3-1.1 15.9-5.1 28-8.9 25.5-8 55-17.4 82-25.9 10.5-3.3 26.4-8.4 35.5-11.2 9.1-2.8 17.4-5.5 18.5-6 1.1-.5 2.5-.9 3.1-.9.9-.1 1.2 17.6 1.2 67.8zm-183.2 138c4.9 1.6 15.7 5 23.9 7.6 8.3 2.6 24.2 7.6 35.4 11.2 11.2 3.6 20.9 6.6 21.5 6.7.6.1 8.5 2.6 17.6 5.5 9.1 2.9 20.8 6.7 26 8.3 5.2 1.7 12.7 4.1 16.5 5.3 3.9 1.3 13.1 4.2 20.5 6.5 18.4 5.7 20.4 6.4 21.1 7.3.8 1.2.9 134.6 0 135.1-.6.3-7-1.6-44.6-13.7-8.8-2.8-16.2-5.2-16.5-5.2-.3 0-2.1-.6-4-1.2-1.9-.7-11.6-3.7-21.5-6.8-9.9-3.1-26.5-8.4-37-11.7-10.4-3.2-19.7-6.2-20.5-6.5-.8-.3-1.9-.7-2.5-.8-.5-.2-7.1-2.2-14.5-4.6-7.4-2.4-13.7-4.4-14-4.4-.3-.1-1.2-.4-2-.8-.8-.3-6.2-2-12-3.7-11-3.3-29.7-9.2-36.5-11.5-2.2-.8-10.1-3.2-17.5-5.5s-16-5-19-6-12.9-4.2-22-7-18.3-5.8-20.5-6.5c-2.2-.8-10.7-3.5-19-6-48.5-15.1-81.5-25.9-81.5-26.7 0-.4.3-.7.8-.6.4.1 3-.5 5.7-1.4 2.8-.9 13.1-4.2 23-7.3 27.4-8.6 58.6-18.5 62.5-19.8 1.9-.6 4-1.2 4.5-1.3.6-.1 8.7-2.7 18-5.7 19.4-6.3 43.5-14 45-14.3.9-.2 53.8-17.2 54.1-17.3.1-.1 4.1 1.2 9 2.8zm-16.1 137.7c8.3 2.6 15.2 4.8 15.5 4.9.3 0 2.1.6 4 1.2 1.9.7 10.9 3.5 20 6.3 9.1 2.9 21.9 6.9 28.5 9 27.5 8.8 42 13.4 42.5 13.5.3 0 2.1.6 4 1.2 6.2 2 36.5 11.7 37.5 11.9.6.2 6.9 2.2 14 4.4 7.2 2.3 17.2 5.5 22.4 7.1 5.2 1.6 9.6 3.1 9.8 3.3.2.1-4.1 1.6-9.4 3.3-5.4 1.7-22.2 7-37.3 11.8-15.1 4.8-37.2 11.8-49 15.5-33.5 10.6-43.3 13.7-46 14.8-1.4.5-2.9 1-3.5 1.1-1.1.1-.7 0-30.5 9.5-11.3 3.5-26.6 8.3-34 10.6-7.4 2.3-15.5 4.9-18 5.8-2.5.9-5 1.7-5.6 1.8-.5.1-9.8 3-20.5 6.4-25.2 8-54.5 17.3-78.9 25-19.7 6.2-59.7 18.9-67.9 21.6-2.5.8-4.7 1.4-5.1 1.4-.3 0-.6-30.6-.6-68l-.1-68 4.9-1.6c2.7-.9 5.4-1.7 6.1-1.8 1.4-.3 31.3-9.8 40.2-12.8 3.3-1.1 6.7-2.1 7.5-2.3.8-.2 8.7-2.7 17.5-5.5 17.7-5.7 26-8.3 50.5-16 9.1-2.8 17.6-5.5 19-6 1.4-.5 11.3-3.7 22-7 10.7-3.4 20.6-6.5 22-6.9 1.4-.5 2.7-.7 3-.6.3.2 7.3 2.4 15.5 5.1z"/></svg>