<svg xmlns="http://www.w3.org/2000/svg" width="31" height="25"><path fill="#FFF" d="M30.78 2.832c-.16-.156-.422-.208-.632-.156l-1.05.364A7.114 7.114 0 0 0 30.411.803c.11-.26.06-.468-.1-.624a.565.565 0 0 0-.63-.11c-1.47.62-2.73 1.14-3.79 1.46 0 .05-.05 0-.1 0-.84-.47-2.89-1.51-4.36-1.51-3.73.05-6.72 3.17-6.72 6.97v.21C9.24 6.16 6.24 4.6 2.99 1.22L2.46.7l-.315.624C.36 4.704 1.62 7.774 3.67 9.856c-.95-.156-1.58-.468-2.16-.936-.21-.157-.472-.21-.735-.053-.21.104-.315.417-.263.677.736 2.445 2.575 4.422 4.57 5.62-.944 0-1.733-.106-2.52-.626-.21-.104-.526-.104-.736.052-.21.156-.316.416-.21.677.945 2.653 2.784 4.058 5.727 4.422-1.524.88-3.52 1.61-6.62 1.66-.316 0-.58.21-.684.47-.1.31 0 .57.21.78 1.9 1.51 6.1 2.39 11.3 2.39 9.25 0 16.82-8.17 16.82-18.21v-.15c1.15-.58 2.1-1.67 2.57-3.18.05-.21 0-.47-.16-.63zm-3.154 2.966l-.315.104v.884c0 9.47-7.09 17.17-15.76 17.17-4.78 0-7.98-.78-9.72-1.614 3.63-.26 5.73-1.405 7.36-2.653l1.32-.94H8.92c-2.994 0-4.833-.83-5.884-2.81.946.31 1.944.31 3.048.26.42-.05.84-.05 1.26-.05l.158-1.04c-1.996-.58-4.36-2.34-5.517-4.74 1.05.47 2.207.57 3.258.57h1.63L5.558 10c-1.103-.78-4.36-3.538-2.785-7.49C6.136 5.79 9.34 7.3 15.12 8.34l.63.103v-1.45c0-3.225 2.523-5.88 5.676-5.93 1.208-.053 3.205 1.04 3.783 1.352.31.156.63.208.94.104.79-.26 1.73-.63 2.78-1.04-.48.78-1.11 1.51-1.95 2.18-.21.15-.26.47-.16.73s.42.36.68.26l2.05-.68c-.37.67-.948 1.45-1.946 1.82z"/></svg>